<svg width="99" height="29" viewBox="0 0 99 29" fill="none" xmlns="http://www.w3.org/2000/svg">
<g clip-path="url(#clip0_43_2)">
<path d="M40.3837 3.72952C40.3837 2.71423 40.707 1.88127 41.3493 1.22237C41.9916 0.567614 42.8204 0.240234 43.8357 0.240234H48.2533V3.72952H45.5058C44.8137 3.72952 44.4656 4.10248 44.4656 4.84426V7.92329H49.0697V11.4126H44.4656V26.2234H40.3837V11.4126H35.4109V7.92329H40.3837V3.72952ZM55.7125 0.240234V26.2192H51.6307V0.240234H55.7125Z" fill="#343F52"/>
<path d="M73.0056 23.364H72.6326C71.5925 25.4692 69.6116 26.5177 66.6942 26.5177C65.3101 26.5177 64.071 26.2027 62.9812 25.5728C61.8913 24.9429 61.0459 24.0519 60.4367 22.8999C59.8317 21.7479 59.5292 20.4176 59.5292 18.9092V7.92334H63.6111V18.6854C63.6111 20.169 63.984 21.292 64.7258 22.0462C65.4676 22.8004 66.5326 23.1776 67.9167 23.1776C69.45 23.1776 70.6684 22.6637 71.5718 21.636C72.4752 20.6082 72.9269 19.1661 72.9269 17.3137V7.92334H76.9714V26.2193H73.0015V23.3599L73.0056 23.364Z" fill="#343F52"/>
<path d="M84.2152 7.92334L88.9269 14.4916H89.2999L94.0117 7.92334H98.798L92.1551 16.9781L98.9099 26.2193H94.049L89.2999 19.4645H88.9269L84.1779 26.2193H79.3169L86.0717 16.9781L79.4288 7.92334H84.2152Z" fill="#343F52"/>
<path d="M17.9934 27.964C17.6163 28.5359 16.7502 29.0001 16.0665 29.0001H7.72037C7.0366 29.0001 6.78381 28.5318 7.16092 27.964L16.6218 13.6588C16.9989 13.0869 17.865 12.6228 18.5487 12.6228H26.8948C27.5786 12.6228 27.8314 13.0911 27.4543 13.6588L17.9934 27.964Z" fill="#4079E0"/>
<path d="M9.90431 1.04015C10.2814 0.468277 11.1475 0 11.8313 0H20.4426C21.1264 0 21.3792 0.468277 21.0021 1.04015L11.2718 15.8717C10.8947 16.4436 10.0286 16.9118 9.34487 16.9118H0.733549C0.0497825 16.9118 -0.203004 16.4436 0.174104 15.8717L9.90431 1.04015Z" fill="#605EBA"/>
</g>
<defs>
<clipPath id="clip0_43_2">
<rect width="98.91" height="29" fill="white"/>
</clipPath>
</defs>
</svg>
